/* XPM */
static char *_9e00fd50d294951cef0b8c140ec07earyRBdaxRLs8qDE16[] = {
/* columns rows colors chars-per-pixel */
"64 64 76 1 ",
"  c #323278",
". c #343479",
"X c #34347A",
"o c #38387C",
"O c #3A3A7D",
"+ c #3D3D7F",
"@ c #3D3D80",
"# c #3F3F80",
"$ c #404082",
"% c #434383",
"& c #444484",
"* c #474786",
"= c #4B4B88",
"- c #4D4D8A",
"; c #52528D",
": c #55558F",
"> c #565690",
", c #595992",
"< c #5E5E95",
"1 c #5F5F96",
"2 c #616197",
"3 c #646499",
"4 c #656599",
"5 c #67679B",
"6 c #6B6B9E",
"7 c #6C6C9E",
"8 c #7070A1",
"9 c #7373A3",
"0 c #7575A4",
"q c #7777A6",
"w c #7979A7",
"e c #7A7AA8",
"r c #7D7DA9",
"t c #7D7DAA",
"y c #8282AC",
"u c #8484AE",
"i c #8686B0",
"p c #8787B0",
"a c #8888B1",
"s c #8A8AB2",
"d c #8F8FB5",
"f c #9090B6",
"g c #9797BB",
"h c #9898BB",
"j c #9A9ABC",
"k c #9E9EBF",
"l c #A3A3C3",
"z c #A4A4C3",
"x c #A5A5C4",
"c c #ABABC8",
"v c #AFAFCB",
"b c #B1B1CC",
"n c #B6B6CF",
"m c #BABAD1",
"M c #BFBFD5",
"N c #C0C0D6",
"B c #C6C6D9",
"V c #C9C9DC",
"C c #CCCCDE",
"Z c #CFCFDF",
"A c #D1D1E1",
"S c #D4D4E2",
"D c #D7D7E4",
"F c #D8D8E6",
"G c #DCDCE8",
"H c #E0E0EB",
"J c #E4E4ED",
"K c #E5E5EE",
"L c #E8E8F0",
"P c #EDEDF3",
"I c #F1F1F6",
"U c #F3F3F7",
"Y c #F5F5F9",
"T c #FAFAFC",
"R c #FBFBFC",
"E c white",
/* pixels */
"                                                                ",
"                                                                ",
"                                                                ",
"                                                                ",
"                                                                ",
"                                                                ",
"                                                                ",
"                                                                ",
"                       <ukbNCSFGDDFDAVmw                        ",
"                      GEEEEEEEEEEEEEEEEE=                       ",
"                       BR-2wflvmVSFGHHGx                        ",
"                       UE                                       ",
"                       EE                                       ",
"                       EE                                       ",
"                       EE*       .                              ",
"                       EE> #,9kbnbcjr<%                         ",
"                       EEEEEEEEEEEEEEEEEC                       ",
"                       EEEEEEEEEEEEEEEEEG                       ",
"                        CFy,  RR        ..                      ",
"                              EE                                ",
"                              EE                                ",
"                             wEE                                ",
"                       ;:>4yhGEYIREEEEEEEYN:                    ",
"                  %REEEEEEEEEEEEEEEEEEEEEEEEY                   ",
"                  gEEEEEEEEEEEEEEERYIPYEEEEEJ                   ",
"                                                                ",
"                                                                ",
"                                                                ",
"                              %*4yFEEk                          ",
"                          MEEEEEEREEEEI                         ",
"                        AEEEEIl-    sEEA                        ",
"                       YEEL          uEE=                       ",
"                      9EE%            IER                       ",
"                      REp             6EE                       ",
"                      EED            0EEJ                       ",
"                      <EEERVp66dVIEEEEEE                        ",
"                       6EEEEEEEEEEEEEEC                         ",
"                          zPEEERYSf,                            ",
"                                                                ",
"                                                                ",
"                                                                ",
"                                                                ",
"                                                                ",
"                                                                ",
"                                                                ",
"                                                                ",
"                #;#     2tt         0pssu    >pppssppppy        ",
"           esppspsp     pip<      Ossppps0   +ppppspspps        ",
"           pppspap9    >p=pa      aat             pp###         ",
"           p6          paopa5     aao             ss            ",
"           se          pa *aa     aappo           pp            ",
"           pp=rpa,     pa  ap      ppppp@         pp#           ",
"          @appspat    -aappppq      oppapy        pp1           ",
"          #ap0=#      taqippaa        -appp       rpp           ",
"          *pp         aa#  *aa- o#5     eaa6      7sp           ",
"          #pp =5qt#   aa@   aai  aaapppapap1      >pp           ",
"          #paaaaaap   aa    aaa  >pppppapa6       *aa           ",
"           aapaaaa8   pa    ppp   @ep9-#          *aa           ",
"           %9-%              -o                                 ",
"                                                                ",
"                                                                ",
"                                                                ",
"                                                                ",
"                                                                "
};
