/* XPM */
static char *_cd8a3e69e654d34c69cc04ccc0a28f9qbyJiWkQKWxOjsPt[] = {
/* columns rows colors chars-per-pixel */
"64 64 79 1 ",
"  c #357AA1",
". c #367BA1",
"X c #387CA2",
"o c #397DA3",
"O c #3C7FA4",
"+ c #3D7FA5",
"@ c #3D80A5",
"# c #3E80A5",
"$ c #4081A6",
"% c #4283A7",
"& c #4383A7",
"* c #4584A8",
"= c #4786A9",
"- c #4887AA",
"; c #4A88AB",
": c #4C89AC",
"> c #4E8AAC",
", c #4F8BAD",
"< c #518DAE",
"1 c #5690B1",
"2 c #5991B2",
"3 c #5C94B3",
"4 c #5D95B4",
"5 c #6197B5",
"6 c #6499B7",
"7 c #679BB8",
"8 c #6B9EBA",
"9 c #6C9EBA",
"0 c #6C9EBB",
"q c #6C9FBB",
"w c #6FA0BC",
"e c #71A2BD",
"r c #74A3BE",
"t c #76A5BF",
"y c #77A5C0",
"u c #78A6C0",
"i c #7BA8C1",
"p c #7DA9C2",
"a c #7FABC3",
"s c #81ACC4",
"d c #83ADC5",
"f c #87B0C7",
"g c #88B0C7",
"h c #88B1C8",
"j c #89B1C8",
"k c #8AB2C8",
"l c #91B7CC",
"z c #96BACE",
"x c #9ABCD0",
"c c #9CBED1",
"v c #A1C1D4",
"b c #B0CBDA",
"n c #B2CCDB",
"m c #B3CDDC",
"M c #B8D0DE",
"N c #BBD2DF",
"B c #BED4E1",
"V c #C1D6E2",
"C c #C6DAE4",
"Z c #C9DCE6",
"A c #CBDDE7",
"S c #CEDFE8",
"D c #D0E0E9",
"F c #D4E3EB",
"G c #D7E5ED",
"H c #D8E5ED",
"J c #DBE7EE",
"K c #E0EBF1",
"L c #E6EEF3",
"P c #E6EFF4",
"I c #EBF2F6",
"U c #EDF3F7",
"Y c #EEF4F7",
"T c #F1F6F9",
"R c #F5F8FA",
"E c #F7FAFB",
"W c #FAFCFD",
"Q c #FCFDFE",
"! c white",
/* pixels */
"                                                                ",
"                                                                ",
"                                                                ",
"                                                                ",
"                                                                ",
"                                                                ",
"                                                                ",
"                       Ka             ux                        ",
"                       WR             !!                        ",
"                       !!             !!                        ",
"                       !!             !!                        ",
"                       !!MUW!!!!!!!!WW!!#                       ",
"                       !!!!!!!!!!!!!!!!!J                       ",
"                       !!<            !!1                       ",
"                       !!e            !!<                       ",
"                       T!A=33         !!<                       ",
"                       D!!!!!!!!!!!!!!!!                        ",
"                       >!!!!!!!!!!!!!!SL                        ",
"                        ;     49cbz5                            ",
"                                                                ",
"                                                                ",
"                 !53ylbFKLPTR!!!!!!!!!!!!!TJKAo                 ",
"                >!!!!!!!!!!!!!!!!!!!!!!!!!!!!!$                 ",
"                -!!!!!!!!!!!!!!!!!!!!!!!!!!!!G                  ",
"                  =+oooo$ooo  !WL                               ",
"                              !!!>                              ",
"                              !!!2                              ",
"                              !!!x                              ",
"                     BR!!!!!!!!!!!!!!!S2                        ",
"                    +!!!!!!!!!!!!!!!!!!!                        ",
"                     GbAKIULGZBVCAVmM!!!                        ",
"                                     K!!                        ",
"                                     A!!                        ",
"                                     v!!                        ",
"                                     d!!                        ",
"                                     e!!                        ",
"                                     9!!                        ",
"                                     r!!                        ",
"                                     d!K                        ",
"                                                                ",
"                                                                ",
"                                                                ",
"                                                                ",
"                                                                ",
"                                                                ",
"         .              ..       +             o  o             ",
"       %f.    . 8;  ..wfky    digjj    tgjjjjkkj  fe   $ge      ",
"       8jh    .#jj   <kjjjj   ffujja   tgjjjjjkko gs   $gt      ",
"       4jj%    $kk.  jg1 fj9  ji.#kk      *j6  - $gd   .gs      ",
"       7jjj    =kk. <ja  1jg  jd .kj,     =gt    #ga . osf      ",
"       8jjje    jj  fj$ ..kk. kg  agi     *ga   .$gj;.#8fk.     ",
"       tj9jko   jj  gj.. .kk..kj  aga     <gs    *kkjjgjgk..    ",
"       ig#kjj.  kk. kj   ;kk..kjdhjk;     3gs    -kkjjgjkk      ",
"       dg#=jjf  kk. kj   8gg  kjgkjf      ejs    %kj.. =kj      ",
"       hj. tjj< jk  kk<  fge  gj ikkj     igt    =gj   ;kk      ",
"       jj ..kgg jj .tkf. fk.  jk .=kjj    gje    =gj    kk      ",
"      .kj.  <gjdkk. .jjehjj   jj   ojj>   fg6o   ;jj    kko     ",
"      .kj.   djgkk. .yjjjj%  .yho   =ja   dga    .jt    kk#     ",
"       gg    .kkjk#   tjj1    ad    .yj<  @ft     <o    jj;     ",
"             ..,o$            ww     8i                 .       ",
"                                                                ",
"                                                                ",
"                                                                ",
"                                                                "
};
