/* XPM */
static char *_4c6addf00ce412d9de3c1fdd3fa3c230DaNjsMXYXLzqEiw[] = {
/* columns rows colors chars-per-pixel */
"64 64 95 2 ",
"   c #2D5929",
".  c #2F5B2C",
"X  c #305C2D",
"o  c #335E2F",
"O  c #345F30",
"+  c #355F31",
"@  c #356031",
"#  c #376133",
"$  c #3A6336",
"%  c #3B6437",
"&  c #3B6438",
"*  c #3C6538",
"=  c #3D663A",
"-  c #3F673B",
";  c #3F683C",
":  c #40683C",
">  c #426A3F",
",  c #436B40",
"<  c #456C41",
"1  c #466D43",
"2  c #476E44",
"3  c #497046",
"4  c #4C7249",
"5  c #4F744B",
"6  c #4F744C",
"7  c #50754D",
"8  c #52764F",
"9  c #557952",
"0  c #577A54",
"q  c #587B55",
"w  c #597C55",
"e  c #5B7D58",
"r  c #5E7F5B",
"t  c #5E805B",
"y  c #638360",
"u  c #638460",
"i  c #668663",
"p  c #678765",
"a  c #688865",
"s  c #698866",
"d  c #6A8A68",
"f  c #6B8A68",
"g  c #6D8C6A",
"h  c #6F8D6D",
"j  c #708E6E",
"k  c #749171",
"l  c #759273",
"z  c #779374",
"x  c #789475",
"c  c #7A9678",
"v  c #7B9779",
"b  c #7C9779",
"n  c #7F997C",
"m  c #7F9A7D",
"M  c #809A7D",
"N  c #819B7F",
"B  c #829D80",
"V  c #849E82",
"C  c #859F82",
"Z  c #859F83",
"A  c #87A084",
"S  c #88A185",
"D  c #8EA68C",
"F  c #95AB93",
"G  c #99AE97",
"H  c #9FB39D",
"J  c #A4B7A3",
"K  c #A7B9A5",
"L  c #A8BAA6",
"P  c #A9BBA8",
"I  c #ADBFAC",
"U  c #B1C1AF",
"Y  c #B3C3B2",
"T  c #BCCABB",
"R  c #BFCCBE",
"E  c #C0CDBE",
"W  c #C1CEC0",
"Q  c #C5D1C4",
"!  c #C9D4C8",
"~  c #C9D5C8",
"^  c #CED9CD",
"/  c #D1DBD0",
"(  c #D6DED5",
")  c #D8E0D8",
"_  c #DCE4DC",
"`  c #E0E6DF",
"'  c #E2E8E2",
"]  c #E5EBE5",
"[  c #EAEEE9",
"{  c #ECF0EC",
"}  c #F4F6F3",
"|  c #F6F8F6",
" . c #F8F9F8",
".. c gray99",
"X. c white",
/* pixels */
"                                                                                                                                ",
"                                                                                                                                ",
"                                                                                                                                ",
"                                                                                                                                ",
"                                                                                                                                ",
"                                                                                                                                ",
"                                                                                                                                ",
"                                                                              O                                                 ",
"                                        i %                                   { y                                               ",
"                                        X.X.*                               2 X.'                                               ",
"                                        X.X.Q                               9 X.X.                                              ",
"                                        X.X.(                               w X.X.                                              ",
"                                        X.X._                               q X.X.                                              ",
"                                        X.X.`                               q X.X.                                              ",
"                                        X.X.]                               r X.X.                                              ",
"                                        X.X.}                               x X.X.                                              ",
"                                        | X.X.                              G X.X.X.X.X.X.X.                                    ",
"                                         .X.X.                              Y X.X.X.X.X.X.X.                                    ",
"                                         .X.X.          $ r r 9             Q X.X.  7 7 9 S                                     ",
"                                        X.X.X.s D [ X.X.X.X.X.X.X.R         / X.X.                                              ",
"                                         .X.X.X.X.X.X.X.X.X.X.X.X.X.        ^ X.X.                                              ",
"                                        | X.X.X.X.X.X.X.X.X.X.X.X.H         H X.X.                                              ",
"                                        q l 0 J L l r @                     7 X.X.                                              ",
"                                                                              X. .                                              ",
"                                                                                                                                ",
"                                                                                                                                ",
"                                                K  ./ K n f P ) {  .X.X.X.X.X.j                                                 ",
"                                              4 X.X.X.X.X.X.X.X.X.X.X.X.X.X.X.X.Y                                               ",
"                                              x X.X.X.X.X.X.X.X.X.X.X.X.X.X.X.X. .                                              ",
"                                              S X.X.                      w X.X. .                                              ",
"                                              N X.X.                      p X.X. .                                              ",
"                                              l X.X.                      x X.X.X.                                              ",
"                                              y X.X.4                     F X.X.X.                                              ",
"                                              7 X.X.I   : e c K E W U G D ' X.X.X.                                              ",
"                                              , X.X.X.X.X.X.X.X.X.X.X.X.X.X.X.X.X.w                                             ",
"                                              , X.X.X.X.X.X.X.X.X.X.X.X.X.X.X.X.X.<                                             ",
"                                              , | X.| q e e e q w c T ' { [ ~ c >                                               ",
"                                                :                                                                               ",
"                                                                                                                                ",
"                                                                                                                                ",
"                                                                                                                                ",
"                                                                                                                                ",
"                                                                                                                                ",
"                                                                                                                                ",
"                        % o                 * O                                                                                 ",
"                  o C Z Z Z B %           Z Z Z B +               3 A O             % * r c l   2 s           x l               ",
"                9 Z C C M c Z M         g Z Z Z Z Z       s &     B Z Z     s Z Z Z Z Z Z Z Z % B Z           Z Z               ",
"                Z Z Z         O         Z Z     Z Z j     B f     4 Z Z     4 Z Z Z Z Z Z Z x   Z A         $ Z Z               ",
"                Z Z >                 7 Z 3     , Z Z     Z f     @ Z Z           z Z           Z Z         * Z Z               ",
"                Z Z Z 8               B Z         C Z   : Z f X   : Z Z           N Z $         Z Z > $ r c b Z Z               ",
"                2 Z Z Z M X           Z Z         Z Z   + Z z     > Z Z           Z Z %         Z Z A Z Z Z Z Z Z               ",
"                  & Z Z C C 2         C Z         Z Z   + Z c     e Z Z           Z Z *         Z Z < 5 *   * Z Z               ",
"                    + B C Z Z 7     & C C         Z Z   & Z M     M Z Z           Z Z 4         Z Z         > Z Z               ",
"                        j C Z C o   : C C       j Z Z   & Z B     Z C k           Z Z r         Z Z         * Z Z               ",
"                          j Z Z s   o C C   X 3 Z Z 9   : Z Z   2 Z C *           Z Z f         Z Z         ; Z Z               ",
"            2 Z Z .       f Z Z f     Z C Z Z Z Z M       C Z + Z C Z             Z Z l         Z Z           Z Z               ",
"            9 Z B Z Z Z Z Z Z C X     o C Z C Z k         C Z Z Z C + X           Z Z Z         M Z           Z Z               ",
"              r Z Z Z Z Z C Z 3         X + %             X Z C S r               N Z Z                       > j               ",
"                  r Z Z M 8                                     X                 X a @                                         ",
"                                                                                                                                ",
"                                                                                                                                ",
"                                                                                                                                ",
"                                                                                                                                ",
"                                                                                                                                "
};
