/* XPM */
static char *c3ae514cb15840bda3011bc2924e3b83ic15rO9AN3J5NVKk[] = {
/* columns rows colors chars-per-pixel */
"64 64 81 1 ",
"  c #AD4A45",
". c #AE4C47",
"X c #AF4E49",
"o c #B0514C",
"O c #B25651",
"+ c #B35753",
"@ c #B35853",
"# c #B45954",
"$ c #B55B56",
"% c #B65E59",
"& c #B8615D",
"* c #B9645F",
"= c #B96561",
"- c #BA6863",
"; c #BC6B67",
": c #BD6E69",
"> c #BE6F6B",
", c #BF716D",
"< c #C0736F",
"1 c #C07370",
"2 c #C07571",
"3 c #C27874",
"4 c #C37B78",
"5 c #C47E7A",
"6 c #C57F7C",
"7 c #C5807C",
"8 c #C7837F",
"9 c #C78480",
"0 c #C78481",
"q c #C88581",
"w c #C98784",
"e c #C98885",
"r c #CA8B87",
"t c #CB8C89",
"y c #CB8D8A",
"u c #CC8F8C",
"i c #CD928F",
"p c #CE9390",
"a c #CE9491",
"s c #CF9592",
"d c #CF9693",
"f c #D19996",
"g c #D29C9A",
"h c #D6A3A1",
"j c #D6A6A3",
"k c #D7A6A4",
"l c #D9ABA8",
"z c #DBB0AE",
"x c #DDB3B1",
"c c #DFB7B5",
"v c #E0BBB9",
"b c #E1BDBB",
"n c #E2BEBD",
"m c #E3C2C0",
"M c #E4C3C1",
"N c #E7CAC9",
"B c #E9CFCD",
"V c #EAD1D0",
"C c #EBD4D3",
"Z c #ECD5D4",
"A c #EDD8D7",
"S c #EED9D8",
"D c #EFDBDA",
"F c #F0DEDE",
"G c #F1E0E0",
"H c #F2E2E1",
"J c #F3E4E3",
"K c #F3E5E4",
"L c #F4E7E6",
"P c #F6EAEA",
"I c #F7EEED",
"U c #F8EFEF",
"Y c #F8F0F0",
"T c #FAF3F3",
"R c #FAF4F3",
"E c #FBF7F6",
"W c #FCF7F7",
"Q c #FCF9F8",
"! c #FDFBFB",
"~ c #FEFCFC",
"^ c white",
/* pixels */
"                                                                ",
"                                                                ",
"                                                                ",
"                                                                ",
"                                                                ",
"                                                                ",
"                                                                ",
"                                                                ",
"                                                                ",
"                                         fAX                    ",
"                                         z^A                    ",
"                                         n^F                    ",
"                         lG              N^Z                    ",
"                         ^Q              Z^m                    ",
"                        q^c              F^l                    ",
"                        Q^               J^p                    ",
"                        ^^               P^5                    ",
"                       5^R               I^,                    ",
"                       E^g               U^;                    ",
"                       ^^^C         &;:2pU^5                    ",
"                      *^^^^,   M^^^^^^^^^^^j                    ",
"                      Q^bS^^   :^^^^^^^^^T^N                    ",
"                      ^^  ^^j            B^H                    ",
"                     x^^  W^^            v^E                    ",
"                     ^^k  o^^m           S^^                    ",
"                    X^^    ^^^X          V^^                    ",
"                    L^^    2^^T          B^^                    ",
"                    ^^h     ^^^<         C^^                    ",
"                   2^^      %^^^         S^^                    ",
"                   Q^^       T^^F        F^^                    ",
"                   ^^m       X^^^        H^^                    ",
"                   ^^         H^^        H^^                    ",
"                  pE          &!G        K^^                    ",
"                  AP                     K^^                    ",
"                                         H^^                    ",
"                                        Xl^^                    ",
"                                          PK                    ",
"                                                                ",
"                                                                ",
"                                                                ",
"                                                                ",
"                                                                ",
"                                                                ",
"                                                                ",
"       .             .                              X           ",
"      oa5          =,X         o     6ddss      XOO=,,59@       ",
"      Xaa         .df,   ,ddddddi   sdddddp   ssddsdddssX       ",
"       dd         .dde  upddddddi  tss$  &7   ssdddddddsO       ",
"       ddO   O    -ad,  s; $%+$o   ads            ss            ",
"       dp9  edy   ppdo  s9   .     5ddd>          ds            ",
"       dda  dda   ddd   dpXO%,4&    sddddX        dd            ",
"       pdd pdsdO %dda  Xdddpdddd:   Xpdddd=       dd            ",
"       9dd%dddde pad:  $dddddddd+     %adddX      dd            ",
"       odddddddd ddd    dd             Xddd,      dd+           ",
"        dddde9dd4sst    dd$  $=:X  ;s+  ,ddu      dd:           ",
"        ddds XdddssO    sdadddddy  pdsp;sdd9      ddp           ",
"        9pp0  ipdds     =sdsssssr  Xsddddddo      ydd           ",
"         p0   Xass;      $9uppy-     ydddd,       &dp           ",
"               X9=                    o==          o            ",
"                                                                ",
"                                                                ",
"                                                                ",
"                                                                ",
"                                                                "
};
